#Comment line ignore any data following # character 
#Hierarchical Translation and Rotation (.htr) file 
[Header]	
#Header keywords are followed by a single value 
FileType HTR		#Single word string
DataType HTRS		#Translation followed by rotation and scale data
FileVersion 1		#integer
NumSegments 64		#integer
NumFrames 3		#integer
DataFrameRate 30		#integer, data frame rate in this file
EulerRotationOrder ZYX
CalibrationUnits mm
RotationUnits Degrees
GlobalAxisofGravity Y
BoneLengthAxis Y
ScaleFactor 1.00
[SegmentNames&Hierarchy]
#CHILD	PARENT
Pinger_Root GLOBAL
Pelvis Pinger_Root
L_Hip Pelvis
R_Hip Pelvis
Rear_Leg01 Pelvis
Spine1 Pelvis
L_Leg01 L_Hip
L_Leg02 L_Leg01
L_Leg03 L_Leg02
L_Foot L_Leg03
L_Toe1_01 L_Foot
L_Toe2_01 L_Foot
L_Toe3_01 L_Foot
planeAlignerLeft L_Foot
L_Toe1_02 L_Toe1_01
L_Toe1_03 L_Toe1_02
L_Toe2_02 L_Toe2_01
L_Toe2_03 L_Toe2_02
L_Toe3_02 L_Toe3_01
L_Toe3_03 L_Toe3_02
planeLockWeightLeft planeAlignerLeft
R_Leg01 R_Hip
R_Leg02 R_Leg01
R_Leg03 R_Leg02
R_Foot R_Leg03
planeAlignerRight R_Foot
R_Toe1_01 R_Foot
R_Toe2_01 R_Foot
R_Toe3_01 R_Foot
planeLockWeightRight planeAlignerRight
R_Toe1_02 R_Toe1_01
R_Toe1_03 R_Toe1_02
R_Toe2_02 R_Toe2_01
R_Toe2_03 R_Toe2_02
R_Toe3_02 R_Toe3_01
R_Toe3_03 R_Toe3_02
Rear_Leg02 Rear_Leg01
Rear_Leg03 Rear_Leg02
Rear_Leg04 Rear_Leg03
Rear_Foot Rear_Leg04
planeAlignerCenter Rear_Foot
Rear_Toe1_01 Rear_Foot
Rear_Toe2_01 Rear_Foot
Rear_Toe3_01 Rear_Foot
planeLockWeightCenter planeAlignerCenter
Rear_Toe1_02 Rear_Toe1_01
Rear_Toe1_03 Rear_Toe1_02
Rear_Toe2_02 Rear_Toe2_01
Rear_Toe2_03 Rear_Toe2_02
Rear_Toe3_02 Rear_Toe3_01
Rear_Toe3_03 Rear_Toe3_02
Back_Bone Spine1
Head Spine1
Motor_Bone Back_Bone
Ping_Mechanism Back_Bone
BN_LookIK Head
bottomMouth Head
L_Mouth01 Head
L_mouthFront Head
mouthGun Head
R_Mouth01 Head
R_mouthFront Head
TopMouth Head
weapon_bone Head
[BasePosition]
#SegmentName Tx, Ty, Tz, Rx, Ry, Rz, BoneLength
Pinger_Root 0.000000 0.000000 0.000000 -90.000000 0.000000 0.000000 10.000000 
Pelvis 0.000000 0.000000 0.000000 0.000000 0.000000 0.000000 10.000000 
L_Hip 0.000000 0.000000 0.000000 0.000000 0.000000 0.000000 10.000000 
R_Hip 0.000000 0.000000 0.000000 0.000000 0.000000 0.000000 10.000000 
Rear_Leg01 0.000000 0.000000 0.000000 0.000000 0.000000 0.000000 10.000000 
Spine1 0.000000 0.000000 0.000000 0.000000 0.000000 0.000000 10.000000 
L_Leg01 0.000000 0.000000 0.000000 0.000000 0.000000 0.000000 10.000000 
L_Leg02 0.000000 0.000000 0.000000 0.000000 0.000000 0.000000 10.000000 
L_Leg03 0.000000 0.000000 0.000000 0.000000 0.000000 0.000000 10.000000 
L_Foot 0.000000 0.000000 0.000000 0.000000 0.000000 0.000000 10.000000 
L_Toe1_01 0.000000 0.000000 0.000000 0.000000 0.000000 0.000000 10.000000 
L_Toe2_01 0.000000 0.000000 0.000000 0.000000 0.000000 0.000000 10.000000 
L_Toe3_01 0.000000 0.000000 0.000000 0.000000 0.000000 0.000000 10.000000 
planeAlignerLeft 0.000000 0.000000 0.000000 0.000000 0.000000 0.000000 10.000000 
L_Toe1_02 0.000000 0.000000 0.000000 0.000000 0.000000 0.000000 10.000000 
L_Toe1_03 0.000000 0.000000 0.000000 0.000000 0.000000 0.000000 10.000000 
L_Toe2_02 0.000000 0.000000 0.000000 0.000000 0.000000 0.000000 10.000000 
L_Toe2_03 0.000000 0.000000 0.000000 0.000000 0.000000 0.000000 10.000000 
L_Toe3_02 0.000000 0.000000 0.000000 0.000000 0.000000 0.000000 10.000000 
L_Toe3_03 0.000000 0.000000 0.000000 0.000000 0.000000 0.000000 10.000000 
planeLockWeightLeft 0.000000 0.000000 0.000000 0.000000 0.000000 0.000000 10.000000 
R_Leg01 0.000000 0.000000 0.000000 0.000000 0.000000 0.000000 10.000000 
R_Leg02 0.000000 0.000000 0.000000 0.000000 0.000000 0.000000 10.000000 
R_Leg03 0.000000 0.000000 0.000000 0.000000 0.000000 0.000000 10.000000 
R_Foot 0.000000 0.000000 0.000000 0.000000 0.000000 0.000000 10.000000 
planeAlignerRight 0.000000 0.000000 0.000000 0.000000 0.000000 0.000000 10.000000 
R_Toe1_01 0.000000 0.000000 0.000000 0.000000 0.000000 0.000000 10.000000 
R_Toe2_01 0.000000 0.000000 0.000000 0.000000 0.000000 0.000000 10.000000 
R_Toe3_01 0.000000 0.000000 0.000000 0.000000 0.000000 0.000000 10.000000 
planeLockWeightRight 0.000000 0.000000 0.000000 0.000000 0.000000 0.000000 10.000000 
R_Toe1_02 0.000000 0.000000 0.000000 0.000000 0.000000 0.000000 10.000000 
R_Toe1_03 0.000000 0.000000 0.000000 0.000000 0.000000 0.000000 10.000000 
R_Toe2_02 0.000000 0.000000 0.000000 0.000000 0.000000 0.000000 10.000000 
R_Toe2_03 0.000000 0.000000 0.000000 0.000000 0.000000 0.000000 10.000000 
R_Toe3_02 0.000000 0.000000 0.000000 0.000000 0.000000 0.000000 10.000000 
R_Toe3_03 0.000000 0.000000 0.000000 0.000000 0.000000 0.000000 10.000000 
Rear_Leg02 0.000000 0.000000 0.000000 0.000000 0.000000 0.000000 10.000000 
Rear_Leg03 0.000000 0.000000 0.000000 0.000000 0.000000 0.000000 10.000000 
Rear_Leg04 0.000000 0.000000 0.000000 0.000000 0.000000 0.000000 10.000000 
Rear_Foot 0.000000 0.000000 0.000000 0.000000 0.000000 0.000000 10.000000 
planeAlignerCenter 0.000000 0.000000 0.000000 0.000000 0.000000 0.000000 10.000000 
Rear_Toe1_01 0.000000 0.000000 0.000000 0.000000 0.000000 0.000000 10.000000 
Rear_Toe2_01 0.000000 0.000000 0.000000 0.000000 0.000000 0.000000 10.000000 
Rear_Toe3_01 0.000000 0.000000 0.000000 0.000000 0.000000 0.000000 10.000000 
planeLockWeightCenter 0.000000 0.000000 0.000000 0.000000 0.000000 0.000000 10.000000 
Rear_Toe1_02 0.000000 0.000000 0.000000 0.000000 0.000000 0.000000 10.000000 
Rear_Toe1_03 0.000000 0.000000 0.000000 0.000000 0.000000 0.000000 10.000000 
Rear_Toe2_02 0.000000 0.000000 0.000000 0.000000 0.000000 0.000000 10.000000 
Rear_Toe2_03 0.000000 0.000000 0.000000 0.000000 0.000000 0.000000 10.000000 
Rear_Toe3_02 0.000000 0.000000 0.000000 0.000000 0.000000 0.000000 10.000000 
Rear_Toe3_03 0.000000 0.000000 0.000000 0.000000 0.000000 0.000000 10.000000 
Back_Bone 0.000000 0.000000 0.000000 0.000000 0.000000 0.000000 10.000000 
Head 0.000000 0.000000 0.000000 0.000000 0.000000 0.000000 10.000000 
Motor_Bone 0.000000 0.000000 0.000000 0.000000 0.000000 0.000000 10.000000 
Ping_Mechanism 0.000000 0.000000 0.000000 0.000000 0.000000 0.000000 10.000000 
BN_LookIK 0.000000 0.000000 0.000000 0.000000 0.000000 0.000000 10.000000 
bottomMouth 0.000000 0.000000 0.000000 0.000000 0.000000 0.000000 10.000000 
L_Mouth01 0.000000 0.000000 0.000000 0.000000 0.000000 0.000000 10.000000 
L_mouthFront 0.000000 0.000000 0.000000 0.000000 0.000000 0.000000 10.000000 
mouthGun 0.000000 0.000000 0.000000 0.000000 0.000000 0.000000 10.000000 
R_Mouth01 0.000000 0.000000 0.000000 0.000000 0.000000 0.000000 10.000000 
R_mouthFront 0.000000 0.000000 0.000000 0.000000 0.000000 0.000000 10.000000 
TopMouth 0.000000 0.000000 0.000000 0.000000 0.000000 0.000000 10.000000 
weapon_bone 0.000000 0.000000 0.000000 0.000000 0.000000 0.000000 10.000000 
#Beginning of Data. Separated by tabs
#Fr	Tx	Ty	Tz	Rx	Ry	Rz	SF
[Pinger_Root]
46 -0.000020 -2500.000000 0.000000 -0.000075 -0.000000 -0.000020 2500.000000
47 -0.000020 -2500.000000 0.000000 -0.000075 -0.000000 -0.000020 2500.000000
48 -0.000020 -2500.000000 0.000000 -0.000075 -0.000000 -0.000020 2500.000000
[Pelvis]
46 294.452972 1029.009277 4389.770996 -107.210754 -69.109756 111.017632 4518.368652
47 276.780426 1031.068481 4373.503418 -105.880493 -68.219391 108.634811 4501.915039
48 258.966431 1033.966919 4350.817383 -104.473999 -67.651520 106.400223 4479.482422
[L_Hip]
46 5.766392 125.831482 872.656799 176.781082 -80.388649 92.654457 881.701050
47 5.766392 125.831482 872.656799 173.958878 -79.304764 95.710182 881.701050
48 5.766392 125.831482 872.656799 171.422836 -78.076698 98.536743 881.701050
[R_Hip]
46 5.765438 125.836372 -872.654907 5.596637 80.803947 94.455696 881.699829
47 5.765438 125.836372 -872.654907 10.096139 79.990120 98.757652 881.699829
48 5.765438 125.836372 -872.654907 13.973907 79.086990 102.458382 881.699829
[Rear_Leg01]
46 -192.298416 -925.602966 -0.001907 145.731812 -37.815968 -164.702805 945.367432
47 -192.298416 -925.602966 -0.001907 144.287720 -38.246159 -163.980728 945.367432
48 -192.298416 -925.602966 -0.001907 143.816238 -38.419918 -160.501282 945.367432
[Spine1]
46 290.604584 5.007505 0.000477 -3.134395 7.840672 8.190187 290.647736
47 290.604584 5.007505 0.000477 -2.235967 7.185820 6.814368 290.647736
48 290.604584 5.007505 0.000477 -1.568014 6.502993 5.805652 290.647736
[L_Leg01]
46 761.932007 -0.002384 -0.069261 16.889629 -59.740360 -7.642900 761.932068
47 761.932007 -0.002384 -0.069261 11.058366 -58.624321 -1.928851 761.932068
48 761.932007 -0.002384 -0.069261 7.159245 -57.327377 2.077250 761.932068
[L_Leg02]
46 1441.140503 -0.000954 -0.000715 1.436679 -0.236205 -127.085304 1441.140503
47 1441.140503 -0.000954 -0.000715 1.159949 -0.204570 -126.983597 1441.140503
48 1441.140503 -0.000954 -0.000715 0.883276 -0.172443 -126.882034 1441.140503
[L_Leg03]
46 1686.963989 -0.000715 -0.000954 -0.004568 0.000863 111.384277 1686.963989
47 1686.963989 -0.000715 -0.000954 0.005201 -0.004396 108.632408 1686.963989
48 1686.963989 -0.000715 -0.000954 0.012184 -0.005345 106.899757 1686.963989
[L_Foot]
46 3041.570068 -30.715107 11.297464 -8.103717 5.449538 40.287476 3041.746094
47 3041.570068 -30.715107 11.297464 -7.418502 5.734689 41.465611 3041.746094
48 3041.570068 -30.715107 11.297464 -6.727101 6.005772 42.647820 3041.746094
[L_Toe1_01]
46 -188.216690 -224.732346 -21.137953 89.119339 -4.853374 -153.369110 293.899567
47 -188.216690 -224.732346 -21.137953 89.352707 -3.702241 -156.714401 293.899567
48 -188.216690 -224.732346 -21.137953 89.605133 -2.733283 -159.073456 293.899567
[L_Toe2_01]
46 200.746536 -219.926590 148.838394 -76.991684 -12.522696 -50.248806 332.896027
47 200.746536 -219.926590 148.838394 -78.517914 -13.545974 -46.087109 332.896027
48 200.746536 -219.926590 148.838394 -80.378967 -14.618311 -41.084518 332.896027
[L_Toe3_01]
46 188.832520 -219.859131 -191.078659 -109.701714 20.598166 -55.396610 347.140900
47 188.832520 -219.859131 -191.078659 -108.673576 25.011097 -51.258827 347.140900
48 188.832520 -219.859131 -191.078659 -107.434448 28.978765 -47.542118 347.140900
[planeAlignerLeft]
46 137.284790 -686.521667 15.369758 171.066818 -89.420204 98.458527 700.282349
47 84.659203 -612.906128 -6.666221 171.085907 -88.969978 98.082664 618.761292
48 40.620041 -551.046997 -25.211134 170.985153 -88.519852 97.826462 553.116943
[L_Toe1_02]
46 413.761139 0.000477 0.000000 0.001385 -25.827726 0.001385 413.761139
47 413.761139 0.000477 0.000000 0.001386 -25.662823 0.001386 413.761139
48 413.761139 0.000477 0.000000 0.001393 -24.855064 0.001393 413.761139
[L_Toe1_03]
46 464.317322 0.000358 -0.000089 0.003456 50.260704 0.003456 464.317322
47 464.317322 0.000358 -0.000089 0.003119 45.796486 0.003119 464.317322
48 464.317322 0.000358 -0.000089 0.002763 39.735641 0.002763 464.317322
[L_Toe2_02]
46 342.235809 -0.000477 0.000238 0.001202 -65.154861 0.001202 342.235809
47 342.235809 -0.000477 0.000238 0.001186 -73.139046 0.001186 342.235809
48 342.235809 -0.000477 0.000238 0.001181 -77.164284 0.001181 342.235809
[L_Toe2_03]
46 420.210846 -0.000715 0.000000 -0.001488 69.719582 -0.005041 420.210846
47 420.210846 -0.000715 0.000000 -0.026853 87.376167 -0.023355 420.210846
48 420.210846 -0.000715 0.000000 -179.995438 79.587318 -179.991913 420.210846
[L_Toe3_02]
46 329.270111 0.000954 0.000000 0.001179 -79.421822 0.001179 329.270111
47 329.270111 0.000954 0.000000 0.001176 -81.978775 0.001176 329.270111
48 329.270111 0.000954 0.000000 0.001176 -83.282532 0.001176 329.270111
[L_Toe3_03]
46 439.137451 -0.001907 0.000954 -179.992905 82.548203 -179.989410 439.137451
47 439.137451 -0.001907 0.000954 -179.998077 72.081818 -179.994537 439.137451
48 439.137451 -0.001907 0.000954 179.991119 64.426987 179.998291 439.137451
[planeLockWeightLeft]
46 1000.000122 -0.000016 -0.000095 -0.011826 -0.004376 0.005620 1000.000122
47 1000.000122 -0.000025 -0.000095 -0.011826 -0.004376 0.005620 1000.000122
48 1000.000122 -0.000033 -0.000095 -0.011826 -0.004376 0.005620 1000.000122
[R_Leg01]
46 761.455627 -0.001907 -0.000358 140.977722 -44.181408 51.400475 761.455688
47 761.455627 -0.001907 -0.000358 141.594101 -44.649212 49.337944 761.455688
48 761.455627 -0.001907 -0.000358 141.812897 -44.213127 47.692184 761.455688
[R_Leg02]
46 1441.140625 0.000000 -0.000238 -0.616415 -0.075072 -131.969635 1441.140625
47 1441.140625 0.000000 -0.000238 -0.712746 -0.102668 -132.685974 1441.140625
48 1441.140625 0.000000 -0.000238 -0.808726 -0.131467 -133.402237 1441.140625
[R_Leg03]
46 1686.963989 0.000954 0.001431 0.047174 -0.021360 123.199280 1686.963989
47 1686.963989 0.000954 0.001431 0.053602 -0.023981 124.527626 1686.963989
48 1686.963989 0.000954 0.001431 0.059845 -0.027039 126.402695 1686.963989
[R_Foot]
46 3041.560059 -30.531288 -11.204481 9.986864 -5.465369 57.186169 3041.734131
47 3041.560059 -30.531288 -11.204481 9.439644 -5.712950 57.002560 3041.734131
48 3041.560059 -30.531288 -11.204481 8.892983 -5.962264 56.821255 3041.734131
[planeAlignerRight]
46 -23.078407 -802.531006 -57.987320 -34.413277 -89.403900 -55.983231 804.954163
47 -19.106216 -797.297485 -56.442902 -35.782753 -88.937614 -54.921299 799.521118
48 -17.855249 -790.518188 -59.377079 -36.335899 -88.059021 -54.932018 792.946045
[R_Toe1_01]
46 -188.383347 -224.864899 21.052242 90.643913 -1.592303 -146.724335 294.101532
47 -188.383347 -224.864899 21.052242 90.324677 -2.008162 -147.827881 294.101532
48 -188.383347 -224.864899 21.052242 89.684158 -2.218385 -149.278030 294.101532
[R_Toe2_01]
46 200.637817 -220.002121 -148.787384 -100.718895 1.164443 -54.826855 332.857574
47 200.637817 -220.002121 -148.787384 -100.248749 1.807917 -54.875027 332.857574
48 200.637817 -220.002121 -148.787384 -99.778915 2.451772 -54.917927 332.857574
[R_Toe3_01]
46 188.606735 -220.092957 191.126343 -59.513988 -29.868017 -71.300209 347.192566
47 188.606735 -220.092957 191.126343 -59.855797 -29.600189 -71.087814 347.192566
48 188.606735 -220.092957 191.126343 -60.394665 -28.830662 -71.091415 347.192566
[planeLockWeightRight]
46 999.999817 0.000111 -0.000378 -0.011823 -0.004379 -0.000027 999.999817
47 999.999817 0.000117 -0.000380 -0.011823 -0.004379 -0.000027 999.999817
48 999.999817 0.000122 -0.000381 -0.011823 -0.004379 -0.000027 999.999817
[R_Toe1_02]
46 413.762085 0.000477 -0.000119 0.001386 -25.707581 0.001386 413.762085
47 413.762085 0.000477 -0.000119 0.001385 -25.852644 0.001385 413.762085
48 413.762085 0.000477 -0.000119 0.001384 -25.997702 0.001384 413.762085
[R_Toe1_03]
46 464.317810 0.000000 0.001088 0.003242 47.529579 0.003242 464.317810
47 464.317810 0.000000 0.001088 0.003465 50.384327 0.003465 464.317810
48 464.317810 0.000000 0.001088 0.003722 53.237312 0.003722 464.317810
[R_Toe2_02]
46 342.234741 -0.000954 0.000238 0.001213 -60.814087 0.001213 342.234741
47 342.234741 -0.000954 0.000238 0.001214 -60.352440 0.001214 342.234741
48 342.234741 -0.000954 0.000238 0.001214 -60.255211 0.001214 342.234741
[R_Toe2_03]
46 420.210846 0.000715 -0.000268 -0.004190 62.154495 -0.000587 420.210846
47 420.210846 0.000715 -0.000268 -0.004131 61.394569 -0.000522 420.210846
48 420.210846 0.000715 -0.000268 -0.004119 61.233582 -0.000509 420.210846
[R_Toe3_02]
46 329.270355 -0.000477 -0.000954 -0.002385 -63.784267 -0.002385 329.270355
47 329.270355 -0.000477 -0.000954 -0.002391 -62.700794 -0.002391 329.270355
48 329.270355 -0.000477 -0.000954 -0.002393 -62.174503 -0.002393 329.270355
[R_Toe3_03]
46 439.137939 0.000238 0.001431 0.004908 62.328648 0.004908 439.137939
47 439.137939 0.000238 0.001431 0.004660 60.826004 0.004660 439.137939
48 439.137939 0.000238 0.001431 0.004536 60.007626 0.004536 439.137939
[Rear_Leg02]
46 1162.777710 -0.029802 0.005960 10.935023 61.927467 -104.895943 1162.777710
47 1162.777710 -0.029802 0.005960 16.879503 62.760220 -99.901337 1162.777710
48 1162.777710 -0.029802 0.005960 23.453056 63.734055 -93.229790 1162.777710
[Rear_Leg03]
46 607.192505 -0.013351 -0.073195 0.010242 -0.005592 73.620651 607.192505
47 607.192505 -0.013351 -0.073195 0.010262 -0.005553 73.194405 607.192505
48 607.192505 -0.013351 -0.073195 0.010283 -0.005515 72.768166 607.192505
[Rear_Leg04]
46 995.874512 -0.020504 -0.011921 -0.045048 -0.018414 78.951363 995.874573
47 995.874512 -0.020504 -0.011921 -0.041823 -0.014828 78.318443 995.874573
48 995.874512 -0.020504 -0.011921 -0.041676 -0.015235 77.200310 995.874573
[Rear_Foot]
46 3096.176270 -0.067472 -0.041425 78.163963 41.472023 -108.543922 3096.176270
47 3096.176270 -0.067472 -0.041425 76.936394 41.417305 -109.442406 3096.176270
48 3096.176270 -0.067472 -0.041425 69.860176 42.264168 -109.683594 3096.176270
[planeAlignerCenter]
46 -100.169319 -142.126083 -738.888855 1.141673 -0.001643 179.998322 759.072144
47 -118.932175 -187.018097 -757.788025 1.569525 -0.001637 179.998306 789.533569
48 -116.725769 -182.743439 -783.135193 1.997377 -0.001631 179.998306 812.601196
[Rear_Toe1_01]
46 0.653352 83.966492 -371.173737 3.294650 20.762993 96.437943 380.553192
47 0.653352 83.966492 -371.173737 4.376416 22.542086 97.892281 380.553192
48 0.653352 83.966492 -371.173737 4.765858 24.757456 97.987679 380.553192
[Rear_Toe2_01]
46 178.200760 -294.826019 -362.060547 -4.995681 45.175976 -82.013077 499.765686
47 178.200760 -294.826019 -362.060547 -5.927841 43.929153 -83.742706 499.765686
48 178.200760 -294.826019 -362.060547 -6.710686 46.729324 -83.902702 499.765686
[Rear_Toe3_01]
46 -153.359680 -308.780914 -362.060852 -0.771412 43.101826 -112.982994 499.952881
47 -153.359680 -308.780914 -362.060852 -0.519747 40.007652 -112.918121 499.952881
48 -153.359680 -308.780914 -362.060852 -0.726848 43.870491 -113.386780 499.952881
[planeLockWeightCenter]
46 1000.000488 0.000528 -0.000085 -0.011814 -0.004373 -0.000015 1000.000488
47 1000.000488 0.000534 -0.000086 -0.011814 -0.004373 -0.000015 1000.000488
48 740.745911 0.000305 -0.000038 -0.011814 -0.004373 -0.000015 740.745911
[Rear_Toe1_02]
46 379.707825 0.194073 0.000477 -0.006679 -31.224627 -0.006679 379.707855
47 379.707825 0.194073 0.000477 -0.006693 -30.806513 -0.006693 379.707855
48 379.707825 0.194073 0.000477 -0.006707 -30.388416 -0.006707 379.707855
[Rear_Toe1_03]
46 500.129700 0.165701 0.000119 -179.992798 77.898270 -179.996307 500.129761
47 500.129700 0.165701 0.000119 -179.993942 74.628555 -179.997467 500.129761
48 500.129700 0.165701 0.000119 -179.994400 72.780441 -179.997925 500.129761
[Rear_Toe2_02]
46 340.494507 0.000238 -0.000954 0.001196 -67.780571 0.001196 340.494507
47 340.494507 0.000238 -0.000954 0.001212 -61.057541 0.001212 340.494507
48 340.494507 0.000238 -0.000954 0.001197 -67.173630 0.001197 340.494507
[Rear_Toe2_03]
46 433.103577 0.000000 0.000238 0.005814 66.709641 0.005814 433.103546
47 433.103577 0.000000 0.000238 0.004192 57.482250 0.004192 433.103546
48 433.103577 0.000000 0.000238 0.005599 65.799713 0.005599 433.103546
[Rear_Toe3_02]
46 340.494141 -0.000358 -0.000477 -0.002409 -59.314243 -0.002409 340.494171
47 340.494141 -0.000358 -0.000477 -0.002482 -48.784084 -0.002482 340.494171
48 340.494141 -0.000358 -0.000477 -0.002423 -56.993641 -0.002423 340.494171
[Rear_Toe3_03]
46 433.103577 0.001431 -0.000238 -0.000092 55.232574 -0.003756 433.103546
47 433.103577 0.001431 -0.000238 0.000464 43.024170 -0.003348 433.103546
48 433.103577 0.001431 -0.000238 0.000063 52.403362 -0.003630 433.103546
[Back_Bone]
46 1312.175781 -701.934692 0.000954 0.999315 2.807510 -82.981758 1488.125488
47 1312.175781 -701.934692 0.000954 1.411460 2.244724 -84.548340 1488.125488
48 1312.175781 -701.934692 0.000954 1.838704 1.693413 -86.118431 1488.125488
[Head]
46 1406.159424 809.709290 0.001431 1.911343 1.020792 5.626667 1622.625488
47 1406.159424 809.709290 0.001431 1.777544 0.934072 5.818392 1622.625488
48 1406.159424 809.709290 0.001431 1.643459 0.847801 6.010313 1622.625488
[Motor_Bone]
46 1158.364380 -417.834747 0.000477 -2.068580 -0.853146 -106.841263 1231.419434
47 1158.364380 -417.834747 0.000477 -2.008335 -0.793624 -106.782280 1231.419434
48 1158.364380 -417.834747 0.000477 -1.948029 -0.734163 -106.723206 1231.419434
[Ping_Mechanism]
46 1306.855713 -472.045227 -35.149548 0.000103 -0.000053 82.120995 1389.940308
47 1312.423340 -470.350067 -32.522709 0.000103 -0.000053 82.120995 1394.540039
48 1317.990967 -468.654816 -29.895870 0.000103 -0.000053 82.120995 1399.153809
[BN_LookIK]
46 193.241119 1380.371704 -0.002861 0.000000 89.965736 -31.038179 1393.832153
47 193.241119 1380.371704 -0.002861 0.000000 89.965736 -31.038179 1393.832153
48 193.241119 1380.371704 -0.002861 0.000000 89.965736 -31.038179 1393.832153
[bottomMouth]
46 -435.092926 615.759399 -0.000954 -0.000022 0.000016 73.527184 753.966492
47 -435.092926 615.759399 -0.000954 -0.000022 0.000016 73.527184 753.966492
48 -435.092926 615.759399 -0.000954 -0.000022 0.000016 73.527184 753.966492
[L_Mouth01]
46 554.440979 7.658243 838.222046 150.204178 23.759130 109.605339 1005.027161
47 554.440979 7.658243 838.222046 150.204178 23.759130 109.605339 1005.027161
48 554.440979 7.658243 838.222046 150.204178 23.759130 109.605339 1005.027161
[L_mouthFront]
46 551.629089 934.514771 339.150421 0.000081 2.804060 79.119301 1136.941284
47 551.629089 934.514771 339.150421 0.000081 2.804060 79.119301 1136.941284
48 551.629089 934.514771 339.150421 0.000081 2.804060 79.119301 1136.941284
[mouthGun]
46 55.332661 1627.420898 0.000000 0.000023 0.000009 -11.038128 1628.361328
47 55.332661 1627.420898 0.000000 0.000023 0.000009 -11.038128 1628.361328
48 55.332661 1627.420898 0.000000 0.000023 0.000009 -11.038128 1628.361328
[R_Mouth01]
46 554.442383 7.659197 -838.223938 29.795891 -23.759109 109.605331 1005.029541
47 554.442383 7.659197 -838.223938 29.795891 -23.759109 109.605331 1005.029541
48 554.442383 7.659197 -838.223938 29.795891 -23.759109 109.605331 1005.029541
[R_mouthFront]
46 551.629089 934.514282 -339.151367 0.000029 -2.803930 79.119133 1136.941162
47 551.629089 934.514282 -339.151367 0.000029 -2.803930 79.119133 1136.941162
48 551.629089 934.514282 -339.151367 0.000029 -2.803930 79.119133 1136.941162
[TopMouth]
46 461.269867 -56.106091 -0.008583 -0.000059 -0.000268 92.025169 464.669525
47 461.269867 -56.106091 -0.008583 -0.000059 -0.000268 92.025169 464.669525
48 461.269867 -56.106091 -0.008583 -0.000059 -0.000268 92.025169 464.669525
[weapon_bone]
46 -987.239868 1448.372803 0.001431 0.000000 89.965736 -31.038221 1752.833740
47 -987.239868 1448.372803 0.001431 0.000000 89.965736 -31.038221 1752.833740
48 -987.239868 1448.372803 0.001431 0.000000 89.965736 -31.038221 1752.833740
